<?xml version="1.0" encoding="UTF-8" standalone="no"?>
<svg
   xmlns:dc="http://purl.org/dc/elements/1.1/"
   xmlns:cc="http://creativecommons.org/ns#"
   xmlns:rdf="http://www.w3.org/1999/02/22-rdf-syntax-ns#"
   xmlns:svg="http://www.w3.org/2000/svg"
   xmlns="http://www.w3.org/2000/svg"
   xmlns:sodipodi="http://sodipodi.sourceforge.net/DTD/sodipodi-0.dtd"
   xmlns:inkscape="http://www.inkscape.org/namespaces/inkscape"
   width="210mm"
   height="297mm"
   viewBox="0 0 210 297"
   version="1.1"
   id="svg8"
   inkscape:version="1.0.1 (3bc2e813f5, 2020-09-07)"
   sodipodi:docname="BeeLoginInvert.svg">
  <defs
     id="defs2">
    <rect
       x="60.032375"
       y="188.76013"
       width="544.02326"
       height="82.741685"
       id="rect966" />
    <inkscape:perspective
       sodipodi:type="inkscape:persp3d"
       inkscape:vp_x="0 : 148.5 : 1"
       inkscape:vp_y="0 : 1000 : 0"
       inkscape:vp_z="210 : 148.5 : 1"
       inkscape:persp3d-origin="105 : 99 : 1"
       id="perspective926" />
  </defs>
  <sodipodi:namedview
     id="base"
     pagecolor="#ffffff"
     bordercolor="#666666"
     borderopacity="1.0"
     inkscape:pageopacity="0.0"
     inkscape:pageshadow="2"
     inkscape:zoom="0.5209506"
     inkscape:cx="38.730834"
     inkscape:cy="607.77621"
     inkscape:document-units="mm"
     inkscape:current-layer="layer2"
     inkscape:document-rotation="0"
     showgrid="false"
     inkscape:window-width="1920"
     inkscape:window-height="1017"
     inkscape:window-x="-8"
     inkscape:window-y="-8"
     inkscape:window-maximized="1" />
  <metadata
     id="metadata5">
    <rdf:RDF>
      <cc:Work
         rdf:about="">
        <dc:format>image/svg+xml</dc:format>
        <dc:type
           rdf:resource="http://purl.org/dc/dcmitype/StillImage" />
        <dc:title></dc:title>
      </cc:Work>
    </rdf:RDF>
  </metadata>
  <g
     inkscape:label="Layer 1"
     inkscape:groupmode="layer"
     id="layer1"
     style="display:inline" />
  <g
     inkscape:groupmode="layer"
     id="layer2"
     inkscape:label="Layer 2"
     style="display:inline">
    <rect
       style="fill:#ffd42a;fill-opacity:0;stroke-width:0.264583"
       id="rect1104-0"
       width="152.87358"
       height="122.90833"
       x="-78.46833"
       y="-67.745384" />
    <rect
       style="display:inline;fill:#800000;fill-opacity:0;stroke-width:0.132291"
       id="rect1104-2"
       width="76.43679"
       height="61.454166"
       x="19.9834"
       y="185.20493" />
    <path
       sodipodi:type="star"
       style="display:inline;fill:#000000;fill-opacity:1;stroke-width:0.0368983"
       id="path55-5-8-9"
       sodipodi:sides="6"
       sodipodi:cx="15.077446"
       sodipodi:cy="144.56648"
       sodipodi:r1="19.275015"
       sodipodi:r2="16.785141"
       sodipodi:arg1="1.0435093"
       sodipodi:arg2="1.5549863"
       inkscape:flatsided="false"
       inkscape:rounded="0"
       inkscape:randomized="0"
       d="m 24.776454,161.22348 -9.433646,0.12605 -9.8412373,-0.055 -4.82598529,-8.10676 -4.87302321,-8.55024 4.60766074,-8.2328 4.96821456,-8.49528 9.4336465,-0.12605 9.841237,0.055 4.825986,8.10675 4.873023,8.55024 -4.607661,8.2328 z" />
    <path
       sodipodi:type="star"
       style="display:inline;fill:#000000;fill-opacity:1;stroke-width:0.0368983"
       id="path55-5-8-9-2"
       sodipodi:sides="6"
       sodipodi:cx="41.946869"
       sodipodi:cy="128.77077"
       sodipodi:r1="19.275015"
       sodipodi:r2="16.785141"
       sodipodi:arg1="1.0435093"
       sodipodi:arg2="1.5549863"
       inkscape:flatsided="false"
       inkscape:rounded="0"
       inkscape:randomized="0"
       d="m 51.645877,145.42776 -9.433646,0.12605 -9.841237,-0.055 -4.825986,-8.10675 -4.873023,-8.55024 4.607661,-8.2328 4.968214,-8.49529 9.433646,-0.12605 9.841238,0.055 4.825985,8.10675 4.873024,8.55025 -4.607661,8.2328 z" />
    <path
       sodipodi:type="star"
       style="display:inline;fill:#000000;fill-opacity:1;stroke-width:0.0372673"
       id="path55-5-8-9-9"
       sodipodi:sides="6"
       sodipodi:cx="15.029892"
       sodipodi:cy="113.45724"
       sodipodi:r1="19.467766"
       sodipodi:r2="16.952991"
       sodipodi:arg1="1.0435093"
       sodipodi:arg2="1.5549863"
       inkscape:flatsided="false"
       inkscape:rounded="0"
       inkscape:randomized="0"
       d="m 24.825891,130.2808 -9.527983,0.12731 -9.9396505,-0.0555 -4.87424393,-8.18782 -4.92175497,-8.63574 4.65373889,-8.31513 5.01789551,-8.580237 9.527983,-0.127309 9.93965,0.05551 4.874244,8.187819 4.921755,8.63575 -4.653739,8.31512 z" />
    <path
       sodipodi:type="star"
       style="fill:#ffff00;fill-opacity:1;stroke-width:0.0330728"
       id="path55"
       sodipodi:sides="6"
       sodipodi:cx="15.029892"
       sodipodi:cy="113.45724"
       sodipodi:r1="17.276655"
       sodipodi:r2="15.044919"
       sodipodi:arg1="1.0435093"
       sodipodi:arg2="1.5549863"
       inkscape:flatsided="false"
       inkscape:rounded="0"
       inkscape:randomized="0"
       d="m 23.723344,128.3873 -8.455601,0.11298 -8.8209363,-0.0493 -4.3256431,-7.26628 -4.3678093,-7.66378 4.1299586,-7.37926 4.4531267,-7.614523 8.4556014,-0.112979 8.820936,0.04926 4.325643,7.266274 4.36781,7.66379 -4.129959,7.37925 z" />
    <path
       sodipodi:type="star"
       style="fill:#abebff;fill-opacity:1;stroke-width:0.0330728"
       id="path55-5"
       sodipodi:sides="6"
       sodipodi:cx="15.077446"
       sodipodi:cy="144.56648"
       sodipodi:r1="17.276655"
       sodipodi:r2="15.044919"
       sodipodi:arg1="1.0435093"
       sodipodi:arg2="1.5549863"
       inkscape:flatsided="false"
       inkscape:rounded="0"
       inkscape:randomized="0"
       d="m 23.770898,159.49654 -8.455601,0.11298 -8.8209363,-0.0493 -4.3256431,-7.26627 -4.3678093,-7.66379 4.1299586,-7.37925 4.4531267,-7.61453 8.4556014,-0.11298 8.820936,0.0493 4.325643,7.26628 4.36781,7.66378 -4.129959,7.37926 z" />
    <path
       style="fill:#abebff;fill-opacity:1;stroke-width:0.179565"
       d="m 33.243607,143.18418 c -1.19394,-1.93046 -4.202505,-7.05805 -6.078575,-10.3599 l -2.28994,-4.03024 0.835985,-1.53626 c 1.03186,-1.89622 5.187925,-9.16055 6.631945,-11.59188 l 1.06647,-1.79565 8.56023,-0.0466 8.56023,-0.0466 2.317925,3.90727 c 1.27486,2.149 3.224065,5.49684 4.331565,7.43966 l 2.01364,3.53239 -1.74211,3.1115 c -0.95816,1.71133 -2.88197,5.071 -4.27513,7.46595 l -2.533015,4.35444 h -8.574675 -8.57467 z"
       id="path901" />
    <rect
       style="fill:#2b0000;fill-opacity:1;stroke-width:0.132291"
       id="rect991"
       width="9.427146"
       height="0.71825874"
       x="47.822189"
       y="87.990524"
       transform="rotate(30)" />
    <rect
       style="fill:#2b0000;fill-opacity:1;stroke-width:0.132291"
       id="rect991-4"
       width="9.427146"
       height="0.71825874"
       x="-101.2048"
       y="14.77066"
       transform="rotate(-88.5)" />
    <path
       sodipodi:type="star"
       style="fill:#ffffff;fill-opacity:1;stroke-width:0.0661456"
       id="path55-5-7"
       sodipodi:sides="6"
       sodipodi:cx="59.620445"
       sodipodi:cy="124.18169"
       sodipodi:r1="34.55331"
       sodipodi:r2="30.089838"
       sodipodi:arg1="1.0435093"
       sodipodi:arg2="1.5549863"
       inkscape:flatsided="false"
       inkscape:rounded="0"
       inkscape:randomized="0"
       transform="matrix(0.40170584,0,0,0.40213201,-8.8663255,94.692607)"
       d="m 77.00735,154.04181 -16.911203,0.22595 -17.641872,-0.0985 -8.651287,-14.53256 -8.735618,-15.32756 8.259917,-14.75851 8.906253,-15.229054 16.911204,-0.225957 17.641872,0.09852 8.651286,14.532555 8.735619,15.32757 -8.259918,14.75851 z" />
    <path
       sodipodi:type="star"
       style="fill:#abebff;fill-opacity:1;stroke-width:0.0330728"
       id="path55-5-4"
       sodipodi:sides="6"
       sodipodi:cx="41.946869"
       sodipodi:cy="128.77077"
       sodipodi:r1="17.276655"
       sodipodi:r2="15.044919"
       sodipodi:arg1="1.0435093"
       sodipodi:arg2="1.5549863"
       inkscape:flatsided="false"
       inkscape:rounded="0"
       inkscape:randomized="0"
       d="m 50.640321,143.70083 -8.455601,0.11298 -8.820936,-0.0493 -4.325643,-7.26628 -4.36781,-7.66378 4.129959,-7.37926 4.453126,-7.61452 8.455602,-0.11298 8.820936,0.0493 4.325643,7.26627 4.36781,7.66379 -4.129959,7.37925 z" />
    <path
       sodipodi:type="star"
       style="fill:#ffffff;fill-opacity:1;stroke-width:0.0661456"
       id="path55-5-7-4"
       sodipodi:sides="6"
       sodipodi:cx="59.620445"
       sodipodi:cy="124.18169"
       sodipodi:r1="34.55331"
       sodipodi:r2="30.089838"
       sodipodi:arg1="1.0435093"
       sodipodi:arg2="1.5549863"
       inkscape:flatsided="false"
       inkscape:rounded="0"
       inkscape:randomized="0"
       transform="matrix(0.43789774,0,0,0.44181461,15.839242,73.905462)"
       d="m 77.00735,154.04181 -16.911203,0.22595 -17.641872,-0.0985 -8.651287,-14.53256 -8.735618,-15.32756 8.259917,-14.75851 8.906253,-15.229054 16.911204,-0.225957 17.641872,0.09852 8.651286,14.532555 8.735619,15.32757 -8.259918,14.75851 z" />
    <path
       sodipodi:type="star"
       style="fill:#abebff;fill-opacity:1;stroke-width:0.0330728"
       id="path55-5-2"
       sodipodi:sides="6"
       sodipodi:cx="41.916544"
       sodipodi:cy="128.72009"
       sodipodi:r1="17.276655"
       sodipodi:r2="15.044919"
       sodipodi:arg1="1.0435093"
       sodipodi:arg2="1.5549863"
       inkscape:flatsided="false"
       inkscape:rounded="0"
       inkscape:randomized="0"
       d="m 50.609998,143.65015 -8.455601,0.11298 -8.820936,-0.0493 -4.325644,-7.26627 -4.367809,-7.66379 4.129959,-7.37925 4.453126,-7.61453 8.455602,-0.11298 8.820936,0.0493 4.325643,7.26628 4.36781,7.66378 -4.129959,7.37926 z" />
    <path
       sodipodi:type="star"
       style="fill:#ffffff;fill-opacity:1;stroke-width:0.0661456"
       id="path55-5-7-0"
       sodipodi:sides="6"
       sodipodi:cx="59.620445"
       sodipodi:cy="124.18169"
       sodipodi:r1="34.55331"
       sodipodi:r2="30.089838"
       sodipodi:arg1="1.0435093"
       sodipodi:arg2="1.5549863"
       inkscape:flatsided="false"
       inkscape:rounded="0"
       inkscape:randomized="0"
       transform="matrix(0.40170583,0,0,0.40213202,18.003097,78.896897)"
       d="m 77.00735,154.04181 -16.911203,0.22595 -17.641872,-0.0985 -8.651287,-14.53256 -8.735618,-15.32756 8.259917,-14.75851 8.906253,-15.229054 16.911204,-0.225957 17.641872,0.09852 8.651286,14.532555 8.735619,15.32757 -8.259918,14.75851 z" />
    <rect
       style="fill:#ffd42a;fill-opacity:0;stroke-width:0.132291"
       id="rect1104"
       width="76.43679"
       height="61.454166"
       x="-9.9078617"
       y="92.76033" />
    <rect
       style="display:inline;fill:#2b0000;fill-opacity:1;stroke-width:0.0936284"
       id="rect942-6-4"
       width="31.980883"
       height="2.3064363"
       x="-59.77282"
       y="97.11451"
       transform="matrix(0.86653943,-0.49910862,0.50089189,0.86550986,0,0)" />
    <rect
       style="display:inline;fill:#2b0000;fill-opacity:1;stroke-width:0.0902314"
       id="rect942-6-4-6"
       width="30.878845"
       height="2.2185616"
       x="-59.499157"
       y="113.06191"
       transform="matrix(0.8681627,-0.49627968,0.50372955,0.86386141,0,0)" />
    <rect
       style="display:inline;fill:#2b0000;fill-opacity:1;stroke-width:0.0884783"
       id="rect942-6-4-6-7"
       width="30.336584"
       height="2.1713195"
       x="-59.672779"
       y="105.40118"
       transform="matrix(0.86978324,-0.493434,0.50659487,0.86218423,0,0)" />
    <path
       style="fill:#ffffff;fill-opacity:1;stroke-width:0.132291"
       id="path1646"
       d="m 27.19285,177.76683 c 0.432935,-0.70945 1.021203,-1.29876 1.611202,-1.87649 1.024641,-0.97766 2.201195,-1.76667 3.416097,-2.48474 1.579223,-0.96669 3.33395,-1.57878 5.049899,-2.24969 1.513777,-0.56898 2.98415,-1.23849 4.376435,-2.06344 0.771505,-0.45712 0.941055,-0.5989 1.649725,-1.1034 0.847405,-0.64743 1.419935,-1.29096 1.855225,-2.26919 0.21334,-0.47945 0.26132,-0.72955 0.39752,-1.23003 0.15874,-0.85022 0.09323,-1.70932 -0.185345,-2.52808 -0.16411,-0.48235 -0.352175,-0.83375 -0.57407,-1.29174 -0.60542,-1.13925 -1.269335,-2.24631 -1.942895,-3.34623 -0.278765,-0.48306 -0.56301,-0.96375 -0.869145,-1.4301 0,0 -6.206816,0.39695 -6.206816,0.39695 v 0 c 0.369695,0.44673 0.752322,0.88437 1.059841,1.37909 0.722717,1.05881 1.419519,2.13681 2.026986,3.26692 0.54227,1.13112 0.952419,2.11375 0.700817,3.39309 -0.131732,0.47819 -0.155808,0.64469 -0.369828,1.09848 -0.382531,0.81109 -0.988654,1.46117 -1.686126,2.01404 -0.661297,0.49437 -0.778,0.6055 -1.512353,1.04861 -1.357517,0.81913 -2.819079,1.43374 -4.301221,1.98743 -1.830675,0.67429 -3.721346,1.27069 -5.37943,2.32234 -1.219737,0.7782 -2.389486,1.63015 -3.459724,2.60701 -0.676745,0.63022 -1.332364,1.28297 -1.92989,1.98988 0,0 6.273096,0.36929 6.273096,0.36929 z" />
    <text
       xml:space="preserve"
       id="text964"
       style="font-style:normal;font-weight:normal;font-size:10.5833px;line-height:1.25;font-family:sans-serif;white-space:pre;shape-inside:url(#rect966);fill:#ffffff;fill-opacity:1;stroke:none;"
       transform="matrix(0.5,0,0,0.5,-6.8577868,90.824867)"><tspan
         x="60.033203"
         y="230.60024"><tspan
           style="font-size:45.8611px;fill:#ffffff">BeeKeep Login</tspan></tspan></text>
    <path
       style="fill:#ffffff;fill-opacity:1;stroke-width:0.132291"
       id="path980"
       d="m 20.697752,180.99346 c -0.04846,0.45797 -0.152346,0.9324 -0.06572,1.39204 0.02779,0.14744 0.08007,0.28919 0.120101,0.43379 0.08408,0.15653 0.148823,0.32511 0.252239,0.4696 0.579461,0.8096 1.337089,1.15765 2.288064,1.4212 1.255393,0.34792 2.372124,0.43047 3.671173,0.5914 0.75793,0.0518 1.514731,0.12421 2.273788,0.15545 2.350977,0.0968 8.94003,-0.0363 9.560248,-0.0567 0.744098,-0.0245 1.483187,-0.1333 2.222752,-0.21887 1.52213,-0.1761 2.37446,-0.32662 3.85859,-0.56274 0,0 -5.271348,-0.74458 -5.271348,-0.74458 v 0 c -1.460971,0.26336 -2.048446,0.39157 -3.576927,0.56516 -0.724364,0.0823 -2.808302,-0.1696 -2.178169,0.19701 0.765749,0.44551 1.783383,-0.0687 2.656512,0.0813 1.443756,0.24802 -5.640463,-0.21347 -4.391627,-0.16467 -1.280216,-0.17225 -1.982887,-0.22036 -3.19076,-0.53813 -0.883335,-0.23239 -1.601254,-0.54959 -2.053955,-1.36769 -0.03076,-0.10026 -0.07462,-0.19741 -0.09229,-0.30079 -0.06736,-0.39397 0.07017,-0.81172 0.198238,-1.17787 0,0 -6.280904,-0.17485 -6.280904,-0.17485 z" />
    <path
       style="fill:#ffffff;fill-opacity:1;stroke-width:0.132291"
       id="path982"
       d="m 51.659688,182.83252 c 0.993745,-0.33162 1.95918,-0.74297 2.943845,-1.09987 0.96692,-0.35047 2.38163,-0.82048 3.332405,-1.14099 3.403325,-1.1278 6.76261,-2.41256 10.23444,-3.32322 0.64727,-0.16977 1.301725,-0.31087 1.95259,-0.4663 1.369495,-0.62582 2.90974,-0.0773 4.304885,-0.44417 0.67172,-0.17665 -2.74326,-0.14751 -2.0826,0.0668 0.93251,0.30252 1.958105,0.11182 2.9336,0.20925 2.725055,0.27218 3.355065,0.43746 5.996185,0.91356 3.12742,0.71318 1.653255,0.33575 4.42824,1.10961 0,0 5.026455,-0.66714 5.026455,-0.66714 v 0 c -3.115545,-0.73893 -1.484155,-0.37439 -4.896785,-1.0818 -2.123015,-0.37774 -3.817145,-0.71099 -5.96225,-0.96409 -3.60948,-0.4259 -6.38111,-0.3569 -10.317455,-0.33012 -0.83527,0.006 -1.67124,0.0563 -2.501495,0.14786 -0.694215,0.0765 -1.376585,0.23706 -2.06488,0.35559 -0.62831,0.16526 -1.259805,0.31884 -1.88493,0.49577 -3.476845,0.98404 -6.856755,2.2733 -10.312195,3.32545 -2.425345,0.73304 -4.84514,1.4995 -7.30642,2.1037 0,0 6.176365,0.79009 6.176365,0.79009 z" />
    <path
       style="fill:#ffffff;fill-opacity:1;stroke-width:0.132291"
       id="path984"
       d="m 89.526123,182.6994 c 0.633825,0.60814 1.349495,1.13159 2.12226,1.55066 0.359645,0.19504 0.730845,0.36797 1.096265,0.55196 2.976815,1.3879 6.152195,2.31092 9.386362,2.86314 0.7479,0.1277 1.50167,0.21825 2.25251,0.32737 0.83426,0.0679 1.66694,0.15938 2.50279,0.20355 0.85051,0.045 1.70262,0.0689 2.5543,0.0637 4.1989,-0.0256 6.34417,0.1132 9.94536,-0.42019 2.35795,-0.34926 3.05126,-0.57909 5.38346,-1.15258 3.72715,-1.04057 7.31938,-2.51561 10.78465,-4.22869 0.74957,-0.37055 1.48596,-0.76718 2.22893,-1.15078 0,0 -4.88706,-0.52861 -4.88706,-0.52861 v 0 c -0.68325,0.38323 -1.35586,0.78607 -2.04974,1.14971 -3.40018,1.78187 -6.99852,3.16153 -10.71184,4.13413 -2.39609,0.54383 -3.07845,0.75783 -5.49365,1.07678 -0.8747,0.11552 -1.98505,-0.33659 -2.63397,0.26119 -0.54778,0.50462 2.95465,-0.0694 2.23166,0.10942 -0.63727,0.15762 -4.21738,-0.17887 -4.88939,-0.23257 -0.73926,-0.10215 -1.48136,-0.1855 -2.21778,-0.30643 -3.02455,-0.49668 -6.02108,-1.3209 -8.733847,-2.77371 -0.64914,-0.39981 -1.28016,-0.79971 -1.890655,-1.25566 -0.115385,-0.0862 -0.234445,-0.16809 -0.34282,-0.26292 -0.15098,-0.13213 -0.261205,-0.27238 -0.38756,-0.42315 0,0 -6.250235,0.44366 -6.250235,0.44366 z" />
    <path
       style="fill:#ffffff;fill-opacity:1;stroke-width:0.178209"
       id="path988"
       d="m 141.70213,177.98281 c 0.0874,-0.0773 0.17255,-0.16197 0.26222,-0.23178 0.40437,-0.31477 0.80303,-0.55985 1.22392,-0.82098 0.57802,-0.35862 1.75322,-1.06627 2.28688,-1.35653 0.54314,-0.29541 1.09197,-0.56151 1.63796,-0.84227 2.46047,-1.20685 4.94327,-2.31167 7.46921,-3.08398 2.50062,-0.76458 5.21101,-1.34354 7.73492,-1.74763 1.44267,-0.23099 2.88995,-0.37533 4.33492,-0.563 3.66769,-0.44679 7.32511,-0.40804 10.98971,0.0735 2.23371,0.29348 4.62716,0.79948 6.82923,1.56467 0.85673,0.2977 1.69618,0.71767 2.54429,1.07651 0.66026,0.39861 1.33474,0.73804 1.9808,1.19582 1.1198,0.79347 2.36845,1.96876 3.1398,3.58911 0.40997,0.86124 0.44237,1.27345 0.64567,2.26054 0.15791,1.22319 0.11336,2.45777 -0.0823,3.66065 -0.0761,0.46752 -0.19626,0.9539 -0.30104,1.40599 -0.19978,0.75059 -0.48597,1.42359 -0.70634,2.15561 -0.0274,0.0831 -0.0548,0.16625 -0.0822,0.24937 0,0 4.59823,0.3611 4.59823,0.3611 v 0 c 0.0252,-0.0859 0.0504,-0.17167 0.0757,-0.25752 0.22409,-0.73068 0.42128,-1.48087 0.56023,-2.26946 0.34587,-1.93853 0.53934,-3.54846 0.19074,-5.55634 -0.25377,-1.04483 -0.34969,-1.6822 -0.82856,-2.56116 -0.53407,-0.98028 -1.43429,-1.91578 -2.11853,-2.48567 -1.5592,-1.29865 -2.29879,-1.53127 -4.03508,-2.42363 -0.95619,-0.34573 -1.90555,-0.74779 -2.86858,-1.03719 -2.40181,-0.72176 -4.91855,-1.19117 -7.3485,-1.48304 -5.0802,-0.6102 -10.18156,-0.49054 -15.26437,-0.0365 -1.48516,0.18195 -2.97223,0.32566 -4.4555,0.54583 -3.92068,0.582 -7.84601,1.38969 -11.70776,2.66835 -0.8844,0.29285 -1.75978,0.65579 -2.63728,1.00069 -0.7555,0.29695 -1.50769,0.61653 -2.26151,0.9248 -2.01306,0.88802 -1.50657,0.63688 -3.32875,1.53529 -0.8966,0.44205 -1.8007,0.87292 -2.67879,1.41027 -0.133,0.0814 -0.2632,0.17476 -0.39479,0.26214 0,0 4.5955,0.81644 4.5955,0.81644 z" />
    <rect
       style="fill:#ffffff;fill-opacity:1;stroke-width:0.135325"
       id="rect1010"
       width="184.70174"
       height="0.89782345"
       x="21.504635"
       y="211.88881" />
    <path
       style="fill:#ffffff;fill-opacity:1;stroke-width:0.132291"
       id="path1018"
       d="m 191.32542,189.49578 c -0.25646,0.55602 -0.53531,1.11097 -0.64103,1.72208 -0.0402,0.23239 -0.0445,0.46958 -0.0667,0.70437 0.032,0.28867 0.0342,0.58227 0.0962,0.86602 0.26752,1.22325 0.92068,2.34251 1.70321,3.30544 0.33829,0.41627 0.69338,0.82266 1.08993,1.18388 0.4822,0.43924 1.0253,0.80658 1.53795,1.20987 2.66198,1.84438 5.65653,3.10466 8.56823,4.48665 2.06555,0.98038 1.78782,0.85593 3.66955,1.83298 0.96858,0.59103 2.10506,1.16654 2.76327,2.14268 0.24291,0.36025 0.39637,0.77657 0.25878,1.21265 -0.0691,0.21885 -0.2321,0.39594 -0.34816,0.59392 -0.19883,0.20861 -0.38363,0.43158 -0.59652,0.62584 -0.9306,0.8492 -2.2463,1.62215 -3.41947,2.07579 -0.32327,0.125 -0.65823,0.21737 -0.98735,0.32605 -2.02219,0.52585 -4.12315,0.64881 -6.20457,0.61895 4.76955,-0.0369 4.29355,0.0747 2.86472,-0.0702 -0.50924,-0.0517 -1.01582,-0.1164 -1.52618,-0.15754 -0.0824,-0.006 -0.16472,-0.0113 -0.24708,-0.017 0,0 -4.28342,0.6592 -4.28342,0.6592 v 0 c 0.0929,0.002 0.18587,0.004 0.27881,0.006 2.30214,0.0857 4.54088,0.61131 6.8825,0.2071 0.90734,-0.0197 1.80853,-0.0649 2.71186,-0.15925 0.7094,-0.0741 1.59793,-0.18655 2.29441,-0.3343 0.35936,-0.0762 0.71139,-0.18365 1.06706,-0.27547 0.3345,-0.12088 0.67515,-0.22592 1.00349,-0.36264 0.95403,-0.39728 1.85526,-0.94031 2.68198,-1.55823 0.27955,-0.20895 0.55681,-0.42277 0.81311,-0.65967 0.24304,-0.22464 0.45441,-0.48127 0.68161,-0.72191 0.14016,-0.26601 0.34789,-0.50624 0.42051,-0.79802 0.13923,-0.55942 -0.0982,-1.08806 -0.43651,-1.51269 -0.81924,-1.02825 -2.22828,-1.62564 -3.34875,-2.21585 -1.16502,-0.52203 -2.86573,-1.28189 -4.00021,-1.80003 -2.82612,-1.29073 -5.67613,-2.59023 -8.18976,-4.44287 -0.44975,-0.39063 -0.92614,-0.75255 -1.34926,-1.17189 -1.1323,-1.12219 -2.1517,-2.63672 -2.35167,-4.25461 -0.0319,-0.25856 -0.005,-0.52103 -0.007,-0.78154 0.0427,-0.21001 0.068,-0.42432 0.12817,-0.63003 0.16733,-0.5726 0.50686,-1.11905 0.91763,-1.54756 0,0 -4.42892,-0.30819 -4.42892,-0.30819 z" />
  </g>
</svg>
